<?xml version="1.0" encoding="UTF-8" standalone="no"?><svg xmlns="http://www.w3.org/2000/svg" xmlns:xlink="http://www.w3.org/1999/xlink" clip-rule="evenodd" stroke-miterlimit="4.00" viewBox="0 0 505 692"><desc>SVG generated by Keynote</desc><defs></defs><g transform="matrix(1.00, 0.00, -0.00, -1.00, 0.0, 692.0)"><image xlink:href="2DE01704CE2278D601756E87EC30B252.png" width="154.00" height="48.00" transform="matrix(1.00, 0.00, -0.00, -1.00, 175.0, 679.0)"></image><text xml:space="preserve" font-family="HelveticaNeue-Medium" font-size="42.0" fill="#FEFFFE" transform="matrix(1.00, 0.00, -0.00, -1.00, 178.0, 646.0)">O</text><text xml:space="preserve" font-family="HelveticaNeue-Medium" font-size="42.0" fill="#FEFFFE" transform="matrix(1.00, 0.00, -0.00, -1.00, 209.9, 646.0)">r</text><text xml:space="preserve" font-family="HelveticaNeue-Medium" font-size="42.0" fill="#FEFFFE" transform="matrix(1.00, 0.00, -0.00, -1.00, 224.7, 646.0)">i</text><text xml:space="preserve" font-family="HelveticaNeue-Medium" font-size="42.0" fill="#FEFFFE" transform="matrix(1.00, 0.00, -0.00, -1.00, 234.8, 646.0)">g</text><text xml:space="preserve" font-family="HelveticaNeue-Medium" font-size="42.0" fill="#FEFFFE" transform="matrix(1.00, 0.00, -0.00, -1.00, 259.7, 646.0)">i</text><text xml:space="preserve" font-family="HelveticaNeue-Medium" font-size="42.0" fill="#FEFFFE" transform="matrix(1.00, 0.00, -0.00, -1.00, 269.9, 646.0)">n</text><text xml:space="preserve" font-family="HelveticaNeue-Medium" font-size="42.0" fill="#FEFFFE" transform="matrix(1.00, 0.00, -0.00, -1.00, 294.0, 646.0)">a</text><text xml:space="preserve" font-family="HelveticaNeue-Medium" font-size="42.0" fill="#FEFFFE" transform="matrix(1.00, 0.00, -0.00, -1.00, 317.3, 646.0)">l</text><g><clipPath id="clip-411"><path d="M 1.5 633.5 L 504.5 633.5 L 504.5 0.5 L 1.5 0.5 Z M 1.5 633.5 "></path></clipPath><g clip-path="url(#clip-411)"><path d="M 2.0 633.0 L 253.0 633.0 L 253.0 554.0 L 2.0 554.0 Z M 2.0 633.0 " fill="#787878"></path><path d="M 253.0 633.0 L 504.0 633.0 L 504.0 554.0 L 253.0 554.0 Z M 253.0 633.0 " fill="#787878"></path><path d="M 2.0 554.0 L 253.0 554.0 L 253.0 475.0 L 2.0 475.0 Z M 2.0 554.0 " fill="#787878"></path><path d="M 253.0 554.0 L 504.0 554.0 L 504.0 475.0 L 253.0 475.0 Z M 253.0 554.0 " fill="#5D5D5D"></path><path d="M 2.0 475.0 L 253.0 475.0 L 253.0 396.0 L 2.0 396.0 Z M 2.0 475.0 " fill="#787878"></path><path d="M 253.0 475.0 L 504.0 475.0 L 504.0 396.0 L 253.0 396.0 Z M 253.0 475.0 " fill="#5D5D5D"></path><path d="M 2.0 396.0 L 253.0 396.0 L 253.0 317.0 L 2.0 317.0 Z M 2.0 396.0 " fill="#787878"></path><path d="M 253.0 396.0 L 504.0 396.0 L 504.0 317.0 L 253.0 317.0 Z M 253.0 396.0 " fill="#5D5D5D"></path><path d="M 2.0 317.0 L 253.0 317.0 L 253.0 238.0 L 2.0 238.0 Z M 2.0 317.0 " fill="#787878"></path><path d="M 253.0 317.0 L 504.0 317.0 L 504.0 238.0 L 253.0 238.0 Z M 253.0 317.0 " fill="#5D5D5D"></path><path d="M 2.0 238.0 L 253.0 238.0 L 253.0 159.0 L 2.0 159.0 Z M 2.0 238.0 " fill="#787878"></path><path d="M 253.0 238.0 L 504.0 238.0 L 504.0 159.0 L 253.0 159.0 Z M 253.0 238.0 " fill="#5D5D5D"></path><path d="M 2.0 159.0 L 253.0 159.0 L 253.0 80.0 L 2.0 80.0 Z M 2.0 159.0 " fill="#787878"></path><path d="M 253.0 159.0 L 504.0 159.0 L 504.0 80.0 L 253.0 80.0 Z M 253.0 159.0 " fill="#5D5D5D"></path><path d="M 2.0 80.0 L 253.0 80.0 L 253.0 1.0 L 2.0 1.0 Z M 2.0 80.0 " fill="#787878"></path><path d="M 253.0 80.0 L 504.0 80.0 L 504.0 1.0 L 253.0 1.0 Z M 253.0 80.0 " fill="#5D5D5D"></path></g></g><image xlink:href="F4B1860F723EA8D62B897A9444B1371E.png" width="30.00" height="30.00" transform="matrix(1.00, 0.00, -0.00, -1.00, 113.0, 605.0)"></image><g><clipPath id="clip-412"><path d="M 1.5 633.5 L 504.5 633.5 L 504.5 0.5 L 1.5 0.5 Z M 1.5 633.5 "></path></clipPath><g clip-path="url(#clip-412)"><g><clipPath id="clip-413"><path d="M 2.5 554.5 L 253.0 554.5 L 253.0 632.5 L 2.5 632.5 Z M 2.5 554.5 "></path></clipPath><g clip-path="url(#clip-413)"><text xml:space="preserve" font-family="HelveticaNeue-Bold" font-weight="bold" font-size="36.0" fill="#FEFFFF" transform="matrix(1.00, 0.00, -0.00, -1.00, 116.0, 579.0)">X</text></g></g></g></g><image xlink:href="D6B46EE6E2A9CD3122DF6F464296C047.png" width="30.00" height="30.00" transform="matrix(1.00, 0.00, -0.00, -1.00, 363.0, 605.0)"></image><g><clipPath id="clip-414"><path d="M 1.5 633.5 L 504.5 633.5 L 504.5 0.5 L 1.5 0.5 Z M 1.5 633.5 "></path></clipPath><g clip-path="url(#clip-414)"><g><clipPath id="clip-415"><path d="M 253.0 554.5 L 503.5 554.5 L 503.5 632.5 L 253.0 632.5 Z M 253.0 554.5 "></path></clipPath><g clip-path="url(#clip-415)"><text xml:space="preserve" font-family="HelveticaNeue-Bold" font-weight="bold" font-size="36.0" fill="#FEFFFF" transform="matrix(1.00, 0.00, -0.00, -1.00, 366.0, 579.0)">Y</text></g></g></g></g><image xlink:href="2515AE0683A0E03797C4E5F93930FD11.png" width="36.00" height="31.00" transform="matrix(1.00, 0.00, -0.00, -1.00, 110.0, 526.0)"></image><g><clipPath id="clip-416"><path d="M 1.5 633.5 L 504.5 633.5 L 504.5 0.5 L 1.5 0.5 Z M 1.5 633.5 "></path></clipPath><g clip-path="url(#clip-416)"><g><clipPath id="clip-417"><path d="M 2.5 475.2 L 252.8 475.2 L 252.8 553.5 L 2.5 553.5 Z M 2.5 475.2 "></path></clipPath><g clip-path="url(#clip-417)"><text xml:space="preserve" font-family="HelveticaNeue-Medium" font-size="36.0" fill="#FEFFFF" transform="matrix(1.00, 0.00, -0.00, -1.00, 111.0, 500.0)">-</text><text xml:space="preserve" font-family="HelveticaNeue-Medium" font-size="36.0" fill="#FEFFFF" transform="matrix(1.00, 0.00, -0.00, -1.00, 125.0, 500.0)">3</text></g></g></g></g><image xlink:href="E4217183F109009206AFA4FA467A10A7.png" width="22.00" height="31.00" transform="matrix(1.00, 0.00, -0.00, -1.00, 367.0, 526.0)"></image><g><clipPath id="clip-418"><path d="M 1.5 633.5 L 504.5 633.5 L 504.5 0.5 L 1.5 0.5 Z M 1.5 633.5 "></path></clipPath><g clip-path="url(#clip-418)"><g><clipPath id="clip-419"><path d="M 253.3 475.2 L 503.5 475.2 L 503.5 553.5 L 253.3 553.5 Z M 253.3 475.2 "></path></clipPath><g clip-path="url(#clip-419)"><text xml:space="preserve" font-family="HelveticaNeue-Medium" font-size="36.0" fill="#FEFFFF" transform="matrix(1.00, 0.00, -0.00, -1.00, 368.0, 500.0)">9</text></g></g></g></g><image xlink:href="90D72FA9115535359F7BBA95484BF96D.png" width="36.00" height="30.00" transform="matrix(1.00, 0.00, -0.00, -1.00, 110.0, 448.0)"></image><g><clipPath id="clip-420"><path d="M 1.5 633.5 L 504.5 633.5 L 504.5 0.5 L 1.5 0.5 Z M 1.5 633.5 "></path></clipPath><g clip-path="url(#clip-420)"><g><clipPath id="clip-421"><path d="M 2.5 396.2 L 252.8 396.2 L 252.8 474.8 L 2.5 474.8 Z M 2.5 396.2 "></path></clipPath><g clip-path="url(#clip-421)"><text xml:space="preserve" font-family="HelveticaNeue-Medium" font-size="36.0" fill="#FEFFFF" transform="matrix(1.00, 0.00, -0.00, -1.00, 111.0, 422.0)">-</text><text xml:space="preserve" font-family="HelveticaNeue-Medium" font-size="36.0" fill="#FEFFFF" transform="matrix(1.00, 0.00, -0.00, -1.00, 125.0, 422.0)">2</text></g></g></g></g><image xlink:href="E6A00356A09AFB6D70B420E7C4F2A312.png" width="23.00" height="30.00" transform="matrix(1.00, 0.00, -0.00, -1.00, 366.0, 448.0)"></image><g><clipPath id="clip-422"><path d="M 1.5 633.5 L 504.5 633.5 L 504.5 0.5 L 1.5 0.5 Z M 1.5 633.5 "></path></clipPath><g clip-path="url(#clip-422)"><g><clipPath id="clip-423"><path d="M 253.3 396.2 L 503.5 396.2 L 503.5 474.8 L 253.3 474.8 Z M 253.3 396.2 "></path></clipPath><g clip-path="url(#clip-423)"><text xml:space="preserve" font-family="HelveticaNeue-Medium" font-size="36.0" fill="#FEFFFF" transform="matrix(1.00, 0.00, -0.00, -1.00, 368.0, 422.0)">4</text></g></g></g></g><image xlink:href="4C5C367B622E0D66D2E225E1878C6E9E.png" width="30.00" height="30.00" transform="matrix(1.00, 0.00, -0.00, -1.00, 110.0, 369.0)"></image><g><clipPath id="clip-424"><path d="M 1.5 633.5 L 504.5 633.5 L 504.5 0.5 L 1.5 0.5 Z M 1.5 633.5 "></path></clipPath><g clip-path="url(#clip-424)"><g><clipPath id="clip-425"><path d="M 2.5 317.2 L 252.8 317.2 L 252.8 395.8 L 2.5 395.8 Z M 2.5 317.2 "></path></clipPath><g clip-path="url(#clip-425)"><text xml:space="preserve" font-family="HelveticaNeue-Medium" font-size="36.0" fill="#FEFFFF" transform="matrix(1.00, 0.00, -0.00, -1.00, 111.0, 343.0)">-</text><text xml:space="preserve" font-family="HelveticaNeue-Medium" font-size="36.0" fill="#FEFFFF" transform="matrix(1.00, 0.00, -0.00, -1.00, 125.0, 343.0)">1</text></g></g></g></g><image xlink:href="05B3429A1CE43CF76D6E5895D7FAAED9.png" width="16.00" height="30.00" transform="matrix(1.00, 0.00, -0.00, -1.00, 367.0, 369.0)"></image><g><clipPath id="clip-426"><path d="M 1.5 633.5 L 504.5 633.5 L 504.5 0.5 L 1.5 0.5 Z M 1.5 633.5 "></path></clipPath><g clip-path="url(#clip-426)"><g><clipPath id="clip-427"><path d="M 253.3 317.2 L 503.5 317.2 L 503.5 395.8 L 253.3 395.8 Z M 253.3 317.2 "></path></clipPath><g clip-path="url(#clip-427)"><text xml:space="preserve" font-family="HelveticaNeue-Medium" font-size="36.0" fill="#FEFFFF" transform="matrix(1.00, 0.00, -0.00, -1.00, 368.0, 343.0)">1</text></g></g></g></g><image xlink:href="160E0AB79B6C0A4D179EC2FECA8AC167.png" width="22.00" height="31.00" transform="matrix(1.00, 0.00, -0.00, -1.00, 117.0, 290.0)"></image><g><clipPath id="clip-428"><path d="M 1.5 633.5 L 504.5 633.5 L 504.5 0.5 L 1.5 0.5 Z M 1.5 633.5 "></path></clipPath><g clip-path="url(#clip-428)"><g><clipPath id="clip-429"><path d="M 2.5 238.2 L 252.8 238.2 L 252.8 316.8 L 2.5 316.8 Z M 2.5 238.2 "></path></clipPath><g clip-path="url(#clip-429)"><text xml:space="preserve" font-family="HelveticaNeue-Medium" font-size="36.0" fill="#FEFFFF" transform="matrix(1.00, 0.00, -0.00, -1.00, 118.0, 264.0)">0</text></g></g></g></g><image xlink:href="../../2FE1A46A-FB4D-4048-B5B2-99EF14AB02A8/assets/160E0AB79B6C0A4D179EC2FECA8AC167.png" width="22.00" height="31.00" transform="matrix(1.00, 0.00, -0.00, -1.00, 367.0, 290.0)"></image><g><clipPath id="clip-430"><path d="M 1.5 633.5 L 504.5 633.5 L 504.5 0.5 L 1.5 0.5 Z M 1.5 633.5 "></path></clipPath><g clip-path="url(#clip-430)"><g><clipPath id="clip-431"><path d="M 253.3 238.2 L 503.5 238.2 L 503.5 316.8 L 253.3 316.8 Z M 253.3 238.2 "></path></clipPath><g clip-path="url(#clip-431)"><text xml:space="preserve" font-family="HelveticaNeue-Medium" font-size="36.0" fill="#FEFFFF" transform="matrix(1.00, 0.00, -0.00, -1.00, 368.0, 264.0)">0</text></g></g></g></g><image xlink:href="../../2FE1A46A-FB4D-4048-B5B2-99EF14AB02A8/assets/05B3429A1CE43CF76D6E5895D7FAAED9.png" width="16.00" height="30.00" transform="matrix(1.00, 0.00, -0.00, -1.00, 117.0, 211.0)"></image><g><clipPath id="clip-432"><path d="M 1.5 633.5 L 504.5 633.5 L 504.5 0.5 L 1.5 0.5 Z M 1.5 633.5 "></path></clipPath><g clip-path="url(#clip-432)"><g><clipPath id="clip-433"><path d="M 2.5 159.2 L 252.8 159.2 L 252.8 237.8 L 2.5 237.8 Z M 2.5 159.2 "></path></clipPath><g clip-path="url(#clip-433)"><text xml:space="preserve" font-family="HelveticaNeue-Medium" font-size="36.0" fill="#FEFFFF" transform="matrix(1.00, 0.00, -0.00, -1.00, 118.0, 185.0)">1</text></g></g></g></g><image xlink:href="../../2FE1A46A-FB4D-4048-B5B2-99EF14AB02A8/assets/05B3429A1CE43CF76D6E5895D7FAAED9.png" width="16.00" height="30.00" transform="matrix(1.00, 0.00, -0.00, -1.00, 367.0, 211.0)"></image><g><clipPath id="clip-434"><path d="M 1.5 633.5 L 504.5 633.5 L 504.5 0.5 L 1.5 0.5 Z M 1.5 633.5 "></path></clipPath><g clip-path="url(#clip-434)"><g><clipPath id="clip-435"><path d="M 253.3 159.2 L 503.5 159.2 L 503.5 237.8 L 253.3 237.8 Z M 253.3 159.2 "></path></clipPath><g clip-path="url(#clip-435)"><text xml:space="preserve" font-family="HelveticaNeue-Medium" font-size="36.0" fill="#FEFFFF" transform="matrix(1.00, 0.00, -0.00, -1.00, 368.0, 185.0)">1</text></g></g></g></g><image xlink:href="9D023E470F07E83F54D11E0D3C41773D.png" width="22.00" height="30.00" transform="matrix(1.00, 0.00, -0.00, -1.00, 117.0, 132.0)"></image><g><clipPath id="clip-436"><path d="M 1.5 633.5 L 504.5 633.5 L 504.5 0.5 L 1.5 0.5 Z M 1.5 633.5 "></path></clipPath><g clip-path="url(#clip-436)"><g><clipPath id="clip-437"><path d="M 2.5 80.2 L 252.8 80.2 L 252.8 158.8 L 2.5 158.8 Z M 2.5 80.2 "></path></clipPath><g clip-path="url(#clip-437)"><text xml:space="preserve" font-family="HelveticaNeue-Medium" font-size="36.0" fill="#FEFFFF" transform="matrix(1.00, 0.00, -0.00, -1.00, 118.0, 106.0)">2</text></g></g></g></g><image xlink:href="../../2FE1A46A-FB4D-4048-B5B2-99EF14AB02A8/assets/E6A00356A09AFB6D70B420E7C4F2A312.png" width="23.00" height="30.00" transform="matrix(1.00, 0.00, -0.00, -1.00, 366.0, 132.0)"></image><g><clipPath id="clip-438"><path d="M 1.5 633.5 L 504.5 633.5 L 504.5 0.5 L 1.5 0.5 Z M 1.5 633.5 "></path></clipPath><g clip-path="url(#clip-438)"><g><clipPath id="clip-439"><path d="M 253.3 80.2 L 503.5 80.2 L 503.5 158.8 L 253.3 158.8 Z M 253.3 80.2 "></path></clipPath><g clip-path="url(#clip-439)"><text xml:space="preserve" font-family="HelveticaNeue-Medium" font-size="36.0" fill="#FEFFFF" transform="matrix(1.00, 0.00, -0.00, -1.00, 368.0, 106.0)">4</text></g></g></g></g><image xlink:href="096A84295BCD68648C04843EFC48B515.png" width="22.00" height="31.00" transform="matrix(1.00, 0.00, -0.00, -1.00, 117.0, 53.0)"></image><g><clipPath id="clip-440"><path d="M 1.5 633.5 L 504.5 633.5 L 504.5 0.5 L 1.5 0.5 Z M 1.5 633.5 "></path></clipPath><g clip-path="url(#clip-440)"><g><clipPath id="clip-441"><path d="M 2.5 1.5 L 252.8 1.5 L 252.8 79.8 L 2.5 79.8 Z M 2.5 1.5 "></path></clipPath><g clip-path="url(#clip-441)"><text xml:space="preserve" font-family="HelveticaNeue-Medium" font-size="36.0" fill="#FEFFFF" transform="matrix(1.00, 0.00, -0.00, -1.00, 118.0, 27.0)">3</text></g></g></g></g><image xlink:href="../../2FE1A46A-FB4D-4048-B5B2-99EF14AB02A8/assets/E4217183F109009206AFA4FA467A10A7.png" width="22.00" height="31.00" transform="matrix(1.00, 0.00, -0.00, -1.00, 367.0, 53.0)"></image><g><clipPath id="clip-442"><path d="M 1.5 633.5 L 504.5 633.5 L 504.5 0.5 L 1.5 0.5 Z M 1.5 633.5 "></path></clipPath><g clip-path="url(#clip-442)"><g><clipPath id="clip-443"><path d="M 253.3 1.5 L 503.5 1.5 L 503.5 79.8 L 253.3 79.8 Z M 253.3 1.5 "></path></clipPath><g clip-path="url(#clip-443)"><text xml:space="preserve" font-family="HelveticaNeue-Medium" font-size="36.0" fill="#FEFFFF" transform="matrix(1.00, 0.00, -0.00, -1.00, 368.0, 27.0)">9</text></g></g></g></g><g><clipPath id="clip-444"><path d="M 1.5 633.5 L 504.5 633.5 L 504.5 0.5 L 1.5 0.5 Z M 1.5 633.5 "></path></clipPath><g clip-path="url(#clip-444)"><path d="M 1.5 218.0 L 253.0 218.0 " fill="none" stroke="#FEFFFE" stroke-width="0.50" transform="matrix(1.00, 0.00, 0.00, -1.00, 0.0, 693.0)"></path><path d="M 253.0 218.0 L 504.5 218.0 " fill="none" stroke="#FEFFFE" stroke-width="0.50" transform="matrix(1.00, 0.00, 0.00, -1.00, 0.0, 693.0)"></path><path d="M 1.5 297.0 L 253.0 297.0 " fill="none" stroke="#FEFFFE" stroke-width="0.50" transform="matrix(1.00, 0.00, 0.00, -1.00, 0.0, 693.0)"></path><path d="M 253.0 297.0 L 504.5 297.0 " fill="none" stroke="#FEFFFE" stroke-width="0.50" transform="matrix(1.00, 0.00, 0.00, -1.00, 0.0, 693.0)"></path><path d="M 1.5 376.0 L 253.0 376.0 " fill="none" stroke="#FEFFFE" stroke-width="0.50" transform="matrix(1.00, 0.00, 0.00, -1.00, 0.0, 693.0)"></path><path d="M 253.0 376.0 L 504.5 376.0 " fill="none" stroke="#FEFFFE" stroke-width="0.50" transform="matrix(1.00, 0.00, 0.00, -1.00, 0.0, 693.0)"></path><path d="M 1.5 455.0 L 253.0 455.0 " fill="none" stroke="#FEFFFE" stroke-width="0.50" transform="matrix(1.00, 0.00, 0.00, -1.00, 0.0, 693.0)"></path><path d="M 253.0 455.0 L 504.5 455.0 " fill="none" stroke="#FEFFFE" stroke-width="0.50" transform="matrix(1.00, 0.00, 0.00, -1.00, 0.0, 693.0)"></path><path d="M 1.5 534.0 L 253.0 534.0 " fill="none" stroke="#FEFFFE" stroke-width="0.50" transform="matrix(1.00, 0.00, 0.00, -1.00, 0.0, 693.0)"></path><path d="M 253.0 534.0 L 504.5 534.0 " fill="none" stroke="#FEFFFE" stroke-width="0.50" transform="matrix(1.00, 0.00, 0.00, -1.00, 0.0, 693.0)"></path><path d="M 1.5 613.0 L 253.0 613.0 " fill="none" stroke="#FEFFFE" stroke-width="0.50" transform="matrix(1.00, 0.00, 0.00, -1.00, 0.0, 693.0)"></path><path d="M 253.0 613.0 L 504.5 613.0 " fill="none" stroke="#FEFFFE" stroke-width="0.50" transform="matrix(1.00, 0.00, 0.00, -1.00, 0.0, 693.0)"></path><path d="M 253.0 138.5 L 253.0 692.5 " fill="none" stroke="#FEFFFE" stroke-width="0.50" transform="matrix(1.00, 0.00, 0.00, -1.00, 0.0, 693.0)"></path><path d="M 1.5 139.0 L 504.5 139.0 " fill="none" stroke="#FEFFFF" stroke-width="1.00" transform="matrix(1.00, 0.00, 0.00, -1.00, 0.0, 693.0)"></path><path d="M 2.0 59.5 L 2.0 139.0 " fill="none" stroke="#FEFFFF" stroke-width="1.00" transform="matrix(1.00, 0.00, 0.00, -1.00, 0.0, 693.0)"></path><path d="M 2.0 139.0 L 2.0 692.5 " fill="none" stroke="#FEFFFF" stroke-width="1.00" transform="matrix(1.00, 0.00, 0.00, -1.00, 0.0, 693.0)"></path><path d="M 504.0 59.5 L 504.0 139.0 " fill="none" stroke="#FEFFFF" stroke-width="1.00" transform="matrix(1.00, 0.00, 0.00, -1.00, 0.0, 693.0)"></path><path d="M 504.0 139.0 L 504.0 692.5 " fill="none" stroke="#FEFFFF" stroke-width="1.00" transform="matrix(1.00, 0.00, 0.00, -1.00, 0.0, 693.0)"></path><path d="M 1.5 60.0 L 504.5 60.0 " fill="none" stroke="#FEFFFF" stroke-width="1.00" transform="matrix(1.00, 0.00, 0.00, -1.00, 0.0, 693.0)"></path><path d="M 1.5 692.0 L 253.0 692.0 " fill="none" stroke="#FEFFFF" stroke-width="1.00" transform="matrix(1.00, 0.00, 0.00, -1.00, 0.0, 693.0)"></path><path d="M 253.0 692.0 L 504.5 692.0 " fill="none" stroke="#FEFFFF" stroke-width="1.00" transform="matrix(1.00, 0.00, 0.00, -1.00, 0.0, 693.0)"></path></g></g></g></svg>