<?xml version="1.0" encoding="UTF-8" standalone="no"?><svg xmlns="http://www.w3.org/2000/svg" xmlns:xlink="http://www.w3.org/1999/xlink" clip-rule="evenodd" stroke-miterlimit="4.00" viewBox="0 0 190 43"><desc>SVG generated by Keynote</desc><defs></defs><g transform="matrix(1.00, 0.00, -0.00, -1.00, 0.0, 43.0)"><image xlink:href="29AC7FD946662B7CBBDD66334473CA18.png" width="186.00" height="41.00" transform="matrix(1.00, 0.00, -0.00, -1.00, 2.0, 42.0)"></image><text xml:space="preserve" font-family="HelveticaNeue-Medium" font-size="34.5" fill="#EAEAEA" transform="matrix(1.00, 0.00, -0.00, -1.00, 4.9, 15.0)">s</text><text xml:space="preserve" font-family="HelveticaNeue-Medium" font-size="34.5" fill="#EAEAEA" transform="matrix(1.00, 0.00, -0.00, -1.00, 22.8, 15.0)">u</text><text xml:space="preserve" font-family="HelveticaNeue-Medium" font-size="34.5" fill="#EAEAEA" transform="matrix(1.00, 0.00, -0.00, -1.00, 42.6, 15.0)">b</text><text xml:space="preserve" font-family="HelveticaNeue-Medium" font-size="34.5" fill="#EAEAEA" transform="matrix(1.00, 0.00, -0.00, -1.00, 63.7, 15.0)">t</text><text xml:space="preserve" font-family="HelveticaNeue-Medium" font-size="34.5" fill="#EAEAEA" transform="matrix(1.00, 0.00, -0.00, -1.00, 75.2, 15.0)">r</text><text xml:space="preserve" font-family="HelveticaNeue-Medium" font-size="34.5" fill="#EAEAEA" transform="matrix(1.00, 0.00, -0.00, -1.00, 87.4, 15.0)">a</text><text xml:space="preserve" font-family="HelveticaNeue-Medium" font-size="34.5" fill="#EAEAEA" transform="matrix(1.00, 0.00, -0.00, -1.00, 106.5, 15.0)">c</text><text xml:space="preserve" font-family="HelveticaNeue-Medium" font-size="34.5" fill="#EAEAEA" transform="matrix(1.00, 0.00, -0.00, -1.00, 125.7, 15.0)">t</text><text xml:space="preserve" font-family="HelveticaNeue-Medium" font-size="34.5" fill="#EAEAEA" transform="matrix(1.00, 0.00, -0.00, -1.00, 137.2, 15.0)">i</text><text xml:space="preserve" font-family="HelveticaNeue-Medium" font-size="34.5" fill="#EAEAEA" transform="matrix(1.00, 0.00, -0.00, -1.00, 145.5, 15.0)">n</text><text xml:space="preserve" font-family="HelveticaNeue-Medium" font-size="34.5" fill="#EAEAEA" transform="matrix(1.00, 0.00, -0.00, -1.00, 165.3, 15.0)">g</text></g></svg>