<?xml version="1.0" encoding="UTF-8" standalone="no"?><svg xmlns="http://www.w3.org/2000/svg" xmlns:xlink="http://www.w3.org/1999/xlink" clip-rule="evenodd" stroke-miterlimit="4.00" viewBox="0 0 193 64"><desc>SVG generated by Keynote</desc><defs></defs><g transform="matrix(1.00, 0.00, -0.00, -1.00, 0.0, 64.0)"><image xlink:href="213A067A563B6F67FA5ABC9A2668B7E2.png" width="121.00" height="57.00" transform="matrix(1.00, 0.00, -0.00, -1.00, 1.0, 59.0)"></image><text xml:space="preserve" font-family="HelveticaNeue-Medium" font-size="52.0" fill="#EAEAEA" transform="matrix(1.00, 0.00, -0.00, -1.00, 3.0, 18.0)">(</text><text xml:space="preserve" font-family="HelveticaNeue-Medium" font-size="52.0" fill="#EAEAEA" transform="matrix(1.00, 0.00, -0.00, -1.00, 17.5, 18.0)">x</text><text xml:space="preserve" font-family="HelveticaNeue-Medium" font-size="52.0" fill="#EAEAEA" transform="matrix(1.00, 0.00, -0.00, -1.00, 45.4, 18.0)">+</text><text xml:space="preserve" font-family="HelveticaNeue-Medium" font-size="52.0" fill="#EAEAEA" transform="matrix(1.00, 0.00, -0.00, -1.00, 76.6, 18.0)">3</text><text xml:space="preserve" font-family="HelveticaNeue-Medium" font-size="52.0" fill="#EAEAEA" transform="matrix(1.00, 0.00, -0.00, -1.00, 105.5, 18.0)">)</text><image xlink:href="../../59D3661D-E597-47E3-8B02-72C4CCDAAA5F/assets/1EC0DAAB641212DB0ED9EB9DC520BF3B.png" width="25.00" height="34.00" transform="matrix(1.00, 0.00, -0.00, -1.00, 117.0, 62.0)"></image><text xml:space="preserve" font-family="HelveticaNeue-Medium" font-size="34.7" fill="#EAEAEA" transform="matrix(1.00, 0.00, -0.00, -1.00, 119.9, 34.9)">2</text><image xlink:href="A8DD40B02D6EBD3D5B97BA2FF1893BD2.png" width="54.00" height="45.00" transform="matrix(1.00, 0.00, -0.00, -1.00, 137.0, 57.0)"></image><text xml:space="preserve" font-family="HelveticaNeue-Medium" font-size="52.0" fill="#EAEAEA" transform="matrix(1.00, 0.00, -0.00, -1.00, 139.2, 18.0)">-</text><text xml:space="preserve" font-family="HelveticaNeue-Medium" font-size="52.0" fill="#EAEAEA" transform="matrix(1.00, 0.00, -0.00, -1.00, 159.5, 18.0)">4</text></g></svg>