<?xml version="1.0" encoding="UTF-8" standalone="no"?><svg xmlns="http://www.w3.org/2000/svg" xmlns:xlink="http://www.w3.org/1999/xlink" clip-rule="evenodd" stroke-miterlimit="4.00" viewBox="0 0 720 44"><desc>SVG generated by Keynote</desc><defs></defs><g transform="matrix(1.00, 0.00, -0.00, -1.00, 0.0, 44.0)"><image xlink:href="../../9CBA3973-0F1A-4F47-83AB-08DA88E814FD/assets/AD4D1834F7FCA22EDC29E7EEF94B2139.png" width="718.00" height="43.00" transform="matrix(1.00, 0.00, -0.00, -1.00, 1.0, 43.0)"></image><text xml:space="preserve" font-family="HelveticaNeue-Medium" font-size="38.0" fill="#EAEAEA" transform="matrix(1.00, 0.00, -0.00, -1.00, 4.0, 13.0)">2</text><text xml:space="preserve" font-family="HelveticaNeue-Medium" font-size="38.0" fill="#EAEAEA" transform="matrix(1.00, 0.00, -0.00, -1.00, 25.1, 13.0)">,</text><text xml:space="preserve" font-family="HelveticaNeue-Medium" font-size="38.0" fill="#EAEAEA" transform="matrix(1.00, 0.00, -0.00, -1.00, 35.7, 13.0)"> </text><text xml:space="preserve" font-family="HelveticaNeue-Medium" font-size="38.0" fill="#EAEAEA" transform="matrix(1.00, 0.00, -0.00, -1.00, 46.3, 13.0)">a</text><text xml:space="preserve" font-family="HelveticaNeue-Medium" font-size="38.0" fill="#EAEAEA" transform="matrix(1.00, 0.00, -0.00, -1.00, 67.4, 13.0)">n</text><text xml:space="preserve" font-family="HelveticaNeue-Medium" font-size="38.0" fill="#EAEAEA" transform="matrix(1.00, 0.00, -0.00, -1.00, 89.2, 13.0)">d</text><text xml:space="preserve" font-family="HelveticaNeue-Medium" font-size="38.0" fill="#EAEAEA" transform="matrix(1.00, 0.00, -0.00, -1.00, 112.4, 13.0)"> </text><text xml:space="preserve" font-family="HelveticaNeue-Medium" font-size="38.0" fill="#EAEAEA" transform="matrix(1.00, 0.00, -0.00, -1.00, 123.0, 13.0)">t</text><text xml:space="preserve" font-family="HelveticaNeue-Medium" font-size="38.0" fill="#EAEAEA" transform="matrix(1.00, 0.00, -0.00, -1.00, 135.6, 13.0)">h</text><text xml:space="preserve" font-family="HelveticaNeue-Medium" font-size="38.0" fill="#EAEAEA" transform="matrix(1.00, 0.00, -0.00, -1.00, 157.4, 13.0)">e</text><text xml:space="preserve" font-family="HelveticaNeue-Medium" font-size="38.0" fill="#EAEAEA" transform="matrix(1.00, 0.00, -0.00, -1.00, 178.6, 13.0)"> </text><text xml:space="preserve" font-family="HelveticaNeue-Medium" font-size="38.0" fill="#EAEAEA" transform="matrix(1.00, 0.00, -0.00, -1.00, 189.1, 13.0)">ï¬</text><text xml:space="preserve" font-family="HelveticaNeue-Medium" font-size="38.0" fill="#EAEAEA" transform="matrix(1.00, 0.00, -0.00, -1.00, 210.3, 13.0)">n</text><text xml:space="preserve" font-family="HelveticaNeue-Medium" font-size="38.0" fill="#EAEAEA" transform="matrix(1.00, 0.00, -0.00, -1.00, 232.1, 13.0)">a</text><text xml:space="preserve" font-family="HelveticaNeue-Medium" font-size="38.0" fill="#EAEAEA" transform="matrix(1.00, 0.00, -0.00, -1.00, 253.2, 13.0)">l</text><text xml:space="preserve" font-family="HelveticaNeue-Medium" font-size="38.0" fill="#EAEAEA" transform="matrix(1.00, 0.00, -0.00, -1.00, 262.4, 13.0)"> </text><text xml:space="preserve" font-family="HelveticaNeue-Medium" font-size="38.0" fill="#EAEAEA" transform="matrix(1.00, 0.00, -0.00, -1.00, 272.9, 13.0)">f</text><text xml:space="preserve" font-family="HelveticaNeue-Medium" font-size="38.0" fill="#EAEAEA" transform="matrix(1.00, 0.00, -0.00, -1.00, 284.9, 13.0)">u</text><text xml:space="preserve" font-family="HelveticaNeue-Medium" font-size="38.0" fill="#EAEAEA" transform="matrix(1.00, 0.00, -0.00, -1.00, 306.7, 13.0)">n</text><text xml:space="preserve" font-family="HelveticaNeue-Medium" font-size="38.0" fill="#EAEAEA" transform="matrix(1.00, 0.00, -0.00, -1.00, 328.5, 13.0)">c</text><text xml:space="preserve" font-family="HelveticaNeue-Medium" font-size="38.0" fill="#EAEAEA" transform="matrix(1.00, 0.00, -0.00, -1.00, 349.6, 13.0)">t</text><text xml:space="preserve" font-family="HelveticaNeue-Medium" font-size="38.0" fill="#EAEAEA" transform="matrix(1.00, 0.00, -0.00, -1.00, 362.3, 13.0)">i</text><text xml:space="preserve" font-family="HelveticaNeue-Medium" font-size="38.0" fill="#EAEAEA" transform="matrix(1.00, 0.00, -0.00, -1.00, 371.5, 13.0)">o</text><text xml:space="preserve" font-family="HelveticaNeue-Medium" font-size="38.0" fill="#EAEAEA" transform="matrix(1.00, 0.00, -0.00, -1.00, 394.0, 13.0)">n</text><text xml:space="preserve" font-family="HelveticaNeue-Medium" font-size="38.0" fill="#EAEAEA" transform="matrix(1.00, 0.00, -0.00, -1.00, 415.8, 13.0)"> </text><text xml:space="preserve" font-family="HelveticaNeue-Medium" font-size="38.0" fill="#EAEAEA" transform="matrix(1.00, 0.00, -0.00, -1.00, 426.4, 13.0)">h</text><text xml:space="preserve" font-family="HelveticaNeue-Medium" font-size="38.0" fill="#EAEAEA" transform="matrix(1.00, 0.00, -0.00, -1.00, 448.2, 13.0)">a</text><text xml:space="preserve" font-family="HelveticaNeue-Medium" font-size="38.0" fill="#EAEAEA" transform="matrix(1.00, 0.00, -0.00, -1.00, 469.3, 13.0)">s</text><text xml:space="preserve" font-family="HelveticaNeue-Medium" font-size="38.0" fill="#EAEAEA" transform="matrix(1.00, 0.00, -0.00, -1.00, 489.0, 13.0)"> </text><text xml:space="preserve" font-family="HelveticaNeue-Medium" font-size="38.0" fill="#EAEAEA" transform="matrix(1.00, 0.00, -0.00, -1.00, 499.6, 13.0)">b</text><text xml:space="preserve" font-family="HelveticaNeue-Medium" font-size="38.0" fill="#EAEAEA" transform="matrix(1.00, 0.00, -0.00, -1.00, 522.8, 13.0)">e</text><text xml:space="preserve" font-family="HelveticaNeue-Medium" font-size="38.0" fill="#EAEAEA" transform="matrix(1.00, 0.00, -0.00, -1.00, 543.9, 13.0)">e</text><text xml:space="preserve" font-family="HelveticaNeue-Medium" font-size="38.0" fill="#EAEAEA" transform="matrix(1.00, 0.00, -0.00, -1.00, 565.1, 13.0)">n</text><text xml:space="preserve" font-family="HelveticaNeue-Medium" font-size="38.0" fill="#EAEAEA" transform="matrix(1.00, 0.00, -0.00, -1.00, 586.9, 13.0)"> </text><text xml:space="preserve" font-family="HelveticaNeue-Medium" font-size="38.0" fill="#EAEAEA" transform="matrix(1.00, 0.00, -0.00, -1.00, 597.4, 13.0)">s</text><text xml:space="preserve" font-family="HelveticaNeue-Medium" font-size="38.0" fill="#EAEAEA" transform="matrix(1.00, 0.00, -0.00, -1.00, 617.2, 13.0)">h</text><text xml:space="preserve" font-family="HelveticaNeue-Medium" font-size="38.0" fill="#EAEAEA" transform="matrix(1.00, 0.00, -0.00, -1.00, 639.0, 13.0)">i</text><text xml:space="preserve" font-family="HelveticaNeue-Medium" font-size="38.0" fill="#EAEAEA" transform="matrix(1.00, 0.00, -0.00, -1.00, 648.1, 13.0)">f</text><text xml:space="preserve" font-family="HelveticaNeue-Medium" font-size="38.0" fill="#EAEAEA" transform="matrix(1.00, 0.00, -0.00, -1.00, 660.1, 13.0)">t</text><text xml:space="preserve" font-family="HelveticaNeue-Medium" font-size="38.0" fill="#EAEAEA" transform="matrix(1.00, 0.00, -0.00, -1.00, 672.8, 13.0)">e</text><text xml:space="preserve" font-family="HelveticaNeue-Medium" font-size="38.0" fill="#EAEAEA" transform="matrix(1.00, 0.00, -0.00, -1.00, 693.9, 13.0)">d</text></g></svg>