<?xml version="1.0" encoding="UTF-8" standalone="no"?><svg xmlns="http://www.w3.org/2000/svg" xmlns:xlink="http://www.w3.org/1999/xlink" clip-rule="evenodd" stroke-miterlimit="4.00" viewBox="0 0 198 34"><desc>SVG generated by Keynote</desc><defs></defs><g transform="matrix(1.00, 0.00, -0.00, -1.00, 0.0, 34.0)"><image xlink:href="E32689C5708D8B8CC09B99BC4E3600B8.png" width="196.00" height="32.00" transform="matrix(1.00, 0.00, -0.00, -1.00, 1.0, 33.0)"></image><text xml:space="preserve" font-family="HelveticaNeue-Medium" font-size="32.0" fill="#FEFFFE" transform="matrix(1.00, 0.00, -0.00, -1.00, 3.0, 8.0)">E</text><text xml:space="preserve" font-family="HelveticaNeue-Medium" font-size="32.0" fill="#FEFFFE" transform="matrix(1.00, 0.00, -0.00, -1.00, 23.2, 8.0)">l</text><text xml:space="preserve" font-family="HelveticaNeue-Medium" font-size="32.0" fill="#FEFFFE" transform="matrix(1.00, 0.00, -0.00, -1.00, 30.9, 8.0)">l</text><text xml:space="preserve" font-family="HelveticaNeue-Medium" font-size="32.0" fill="#FEFFFE" transform="matrix(1.00, 0.00, -0.00, -1.00, 38.6, 8.0)">i</text><text xml:space="preserve" font-family="HelveticaNeue-Medium" font-size="32.0" fill="#FEFFFE" transform="matrix(1.00, 0.00, -0.00, -1.00, 46.3, 8.0)">o</text><text xml:space="preserve" font-family="HelveticaNeue-Medium" font-size="32.0" fill="#FEFFFE" transform="matrix(1.00, 0.00, -0.00, -1.00, 65.3, 8.0)">t</text><text xml:space="preserve" font-family="HelveticaNeue-Medium" font-size="32.0" fill="#FEFFFE" transform="matrix(1.00, 0.00, -0.00, -1.00, 75.9, 8.0)"> </text><text xml:space="preserve" font-family="HelveticaNeue-Medium" font-size="32.0" fill="#FEFFFE" transform="matrix(1.00, 0.00, -0.00, -1.00, 84.8, 8.0)">B</text><text xml:space="preserve" font-family="HelveticaNeue-Medium" font-size="32.0" fill="#FEFFFE" transform="matrix(1.00, 0.00, -0.00, -1.00, 107.4, 8.0)">o</text><text xml:space="preserve" font-family="HelveticaNeue-Medium" font-size="32.0" fill="#FEFFFE" transform="matrix(1.00, 0.00, -0.00, -1.00, 126.3, 8.0)">n</text><text xml:space="preserve" font-family="HelveticaNeue-Medium" font-size="32.0" fill="#FEFFFE" transform="matrix(1.00, 0.00, -0.00, -1.00, 144.7, 8.0)">n</text><text xml:space="preserve" font-family="HelveticaNeue-Medium" font-size="32.0" fill="#FEFFFE" transform="matrix(1.00, 0.00, -0.00, -1.00, 163.1, 8.0)">e</text><text xml:space="preserve" font-family="HelveticaNeue-Medium" font-size="32.0" fill="#FEFFFE" transform="matrix(1.00, 0.00, -0.00, -1.00, 180.9, 8.0)">r</text></g></svg>