<?xml version="1.0" encoding="UTF-8" standalone="no"?><svg xmlns="http://www.w3.org/2000/svg" xmlns:xlink="http://www.w3.org/1999/xlink" clip-rule="evenodd" stroke-miterlimit="4.00" viewBox="0 0 1366 204"><desc>SVG generated by Keynote</desc><defs></defs><g transform="matrix(1.00, 0.00, -0.00, -1.00, 0.0, 204.0)"><image xlink:href="4DF6B0148BFF27823232C75945ADE647.png" width="1361.00" height="92.00" transform="matrix(1.00, 0.00, -0.00, -1.00, 1.0, 203.0)"></image><text xml:space="preserve" font-family="HelveticaNeue-Bold" font-weight="bold" font-size="90.0" fill="#FEFFFE" transform="matrix(1.00, 0.00, -0.00, -1.00, 2.0, 135.0)">G</text><text xml:space="preserve" font-family="HelveticaNeue-Bold" font-weight="bold" font-size="90.0" fill="#FEFFFE" transform="matrix(1.00, 0.00, -0.00, -1.00, 70.3, 135.0)">E</text><text xml:space="preserve" font-family="HelveticaNeue-Bold" font-weight="bold" font-size="90.0" fill="#FEFFFE" transform="matrix(1.00, 0.00, -0.00, -1.00, 128.6, 135.0)">C</text><text xml:space="preserve" font-family="HelveticaNeue-Bold" font-weight="bold" font-size="90.0" fill="#FEFFFE" transform="matrix(1.00, 0.00, -0.00, -1.00, 195.3, 135.0)">O</text><text xml:space="preserve" font-family="HelveticaNeue-Bold" font-weight="bold" font-size="90.0" fill="#FEFFFE" transform="matrix(1.00, 0.00, -0.00, -1.00, 265.3, 135.0)"> </text><text xml:space="preserve" font-family="HelveticaNeue-Bold" font-weight="bold" font-size="90.0" fill="#FEFFFE" transform="matrix(1.00, 0.00, -0.00, -1.00, 290.4, 135.0)">4</text><text xml:space="preserve" font-family="HelveticaNeue-Bold" font-weight="bold" font-size="90.0" fill="#FEFFFE" transform="matrix(1.00, 0.00, -0.00, -1.00, 340.4, 135.0)">:</text><text xml:space="preserve" font-family="HelveticaNeue-Bold" font-weight="bold" font-size="90.0" fill="#FEFFFE" transform="matrix(1.00, 0.00, -0.00, -1.00, 365.4, 135.0)"> </text><text xml:space="preserve" font-family="HelveticaNeue-Bold" font-weight="bold" font-size="90.0" fill="#FEFFFE" transform="matrix(1.00, 0.00, -0.00, -1.00, 390.4, 135.0)">T</text><text xml:space="preserve" font-family="HelveticaNeue-Bold" font-weight="bold" font-size="90.0" fill="#FEFFFE" transform="matrix(1.00, 0.00, -0.00, -1.00, 437.1, 135.0)">r</text><text xml:space="preserve" font-family="HelveticaNeue-Bold" font-weight="bold" font-size="90.0" fill="#FEFFFE" transform="matrix(1.00, 0.00, -0.00, -1.00, 472.2, 135.0)">a</text><text xml:space="preserve" font-family="HelveticaNeue-Bold" font-weight="bold" font-size="90.0" fill="#FEFFFE" transform="matrix(1.00, 0.00, -0.00, -1.00, 523.8, 135.0)">n</text><text xml:space="preserve" font-family="HelveticaNeue-Bold" font-weight="bold" font-size="90.0" fill="#FEFFFE" transform="matrix(1.00, 0.00, -0.00, -1.00, 577.2, 135.0)">s</text><text xml:space="preserve" font-family="HelveticaNeue-Bold" font-weight="bold" font-size="90.0" fill="#FEFFFE" transform="matrix(1.00, 0.00, -0.00, -1.00, 625.5, 135.0)">l</text><text xml:space="preserve" font-family="HelveticaNeue-Bold" font-weight="bold" font-size="90.0" fill="#FEFFFE" transform="matrix(1.00, 0.00, -0.00, -1.00, 648.7, 135.0)">a</text><text xml:space="preserve" font-family="HelveticaNeue-Bold" font-weight="bold" font-size="90.0" fill="#FEFFFE" transform="matrix(1.00, 0.00, -0.00, -1.00, 700.4, 135.0)">t</text><text xml:space="preserve" font-family="HelveticaNeue-Bold" font-weight="bold" font-size="90.0" fill="#FEFFFE" transform="matrix(1.00, 0.00, -0.00, -1.00, 732.1, 135.0)">i</text><text xml:space="preserve" font-family="HelveticaNeue-Bold" font-weight="bold" font-size="90.0" fill="#FEFFFE" transform="matrix(1.00, 0.00, -0.00, -1.00, 755.3, 135.0)">n</text><text xml:space="preserve" font-family="HelveticaNeue-Bold" font-weight="bold" font-size="90.0" fill="#FEFFFE" transform="matrix(1.00, 0.00, -0.00, -1.00, 808.7, 135.0)">g</text><text xml:space="preserve" font-family="HelveticaNeue-Bold" font-weight="bold" font-size="90.0" fill="#FEFFFE" transform="matrix(1.00, 0.00, -0.00, -1.00, 863.7, 135.0)"> </text><text xml:space="preserve" font-family="HelveticaNeue-Bold" font-weight="bold" font-size="90.0" fill="#FEFFFE" transform="matrix(1.00, 0.00, -0.00, -1.00, 888.7, 135.0)">Q</text><text xml:space="preserve" font-family="HelveticaNeue-Bold" font-weight="bold" font-size="90.0" fill="#FEFFFE" transform="matrix(1.00, 0.00, -0.00, -1.00, 958.7, 135.0)">u</text><text xml:space="preserve" font-family="HelveticaNeue-Bold" font-weight="bold" font-size="90.0" fill="#FEFFFE" transform="matrix(1.00, 0.00, -0.00, -1.00, 1012.1, 135.0)">a</text><text xml:space="preserve" font-family="HelveticaNeue-Bold" font-weight="bold" font-size="90.0" fill="#FEFFFE" transform="matrix(1.00, 0.00, -0.00, -1.00, 1063.7, 135.0)">d</text><text xml:space="preserve" font-family="HelveticaNeue-Bold" font-weight="bold" font-size="90.0" fill="#FEFFFE" transform="matrix(1.00, 0.00, -0.00, -1.00, 1118.7, 135.0)">r</text><text xml:space="preserve" font-family="HelveticaNeue-Bold" font-weight="bold" font-size="90.0" fill="#FEFFFE" transform="matrix(1.00, 0.00, -0.00, -1.00, 1153.7, 135.0)">a</text><text xml:space="preserve" font-family="HelveticaNeue-Bold" font-weight="bold" font-size="90.0" fill="#FEFFFE" transform="matrix(1.00, 0.00, -0.00, -1.00, 1205.4, 135.0)">t</text><text xml:space="preserve" font-family="HelveticaNeue-Bold" font-weight="bold" font-size="90.0" fill="#FEFFFE" transform="matrix(1.00, 0.00, -0.00, -1.00, 1237.1, 135.0)">i</text><text xml:space="preserve" font-family="HelveticaNeue-Bold" font-weight="bold" font-size="90.0" fill="#FEFFFE" transform="matrix(1.00, 0.00, -0.00, -1.00, 1260.3, 135.0)">c</text><text xml:space="preserve" font-family="HelveticaNeue-Bold" font-weight="bold" font-size="90.0" fill="#FEFFFE" transform="matrix(1.00, 0.00, -0.00, -1.00, 1312.0, 135.0)">s</text><text xml:space="preserve" font-family="HelveticaNeue-Bold" font-weight="bold" font-size="90.0" fill="#FEFFFE" transform="matrix(1.00, 0.00, -0.00, -1.00, 1360.3, 135.0)"> </text><image xlink:href="ACBF5BC9D894EE710A027F3F1982DF01.png" width="395.00" height="91.00" transform="matrix(1.00, 0.00, -0.00, -1.00, 484.0, 92.0)"></image><text xml:space="preserve" font-family="HelveticaNeue-Bold" font-weight="bold" font-size="90.0" fill="#FEFFFE" transform="matrix(1.00, 0.00, -0.00, -1.00, 484.0, 24.0)">(</text><text xml:space="preserve" font-family="HelveticaNeue-Bold" font-weight="bold" font-size="90.0" fill="#FEFFFE" transform="matrix(1.00, 0.00, -0.00, -1.00, 510.6, 24.0)">R</text><text xml:space="preserve" font-family="HelveticaNeue-Bold" font-weight="bold" font-size="90.0" fill="#FEFFFE" transform="matrix(1.00, 0.00, -0.00, -1.00, 575.6, 24.0)">e</text><text xml:space="preserve" font-family="HelveticaNeue-Bold" font-weight="bold" font-size="90.0" fill="#FEFFFE" transform="matrix(1.00, 0.00, -0.00, -1.00, 627.3, 24.0)">v</text><text xml:space="preserve" font-family="HelveticaNeue-Bold" font-weight="bold" font-size="90.0" fill="#FEFFFE" transform="matrix(1.00, 0.00, -0.00, -1.00, 674.1, 24.0)">i</text><text xml:space="preserve" font-family="HelveticaNeue-Bold" font-weight="bold" font-size="90.0" fill="#FEFFFE" transform="matrix(1.00, 0.00, -0.00, -1.00, 697.3, 24.0)">s</text><text xml:space="preserve" font-family="HelveticaNeue-Bold" font-weight="bold" font-size="90.0" fill="#FEFFFE" transform="matrix(1.00, 0.00, -0.00, -1.00, 745.6, 24.0)">e</text><text xml:space="preserve" font-family="HelveticaNeue-Bold" font-weight="bold" font-size="90.0" fill="#FEFFFE" transform="matrix(1.00, 0.00, -0.00, -1.00, 797.3, 24.0)">d</text><text xml:space="preserve" font-family="HelveticaNeue-Bold" font-weight="bold" font-size="90.0" fill="#FEFFFE" transform="matrix(1.00, 0.00, -0.00, -1.00, 852.3, 24.0)">)</text></g></svg>