<?xml version="1.0" encoding="UTF-8" standalone="no"?><svg xmlns="http://www.w3.org/2000/svg" xmlns:xlink="http://www.w3.org/1999/xlink" clip-rule="evenodd" stroke-miterlimit="4.00" viewBox="0 0 172 42"><desc>SVG generated by Keynote</desc><defs></defs><g transform="matrix(1.00, 0.00, -0.00, -1.00, 0.0, 42.0)"><image xlink:href="../../6FF4693E-83A2-4E1B-81AF-92A43E949A0F/assets/7EB608CB3F0EB48EB9A312F6496B0DA8.png" width="49.00" height="37.00" transform="matrix(1.00, 0.00, -0.00, -1.00, 1.0, 38.0)"></image><text xml:space="preserve" font-family="HelveticaNeue-Medium" font-size="38.0" fill="#EAEAEA" transform="matrix(1.00, 0.00, -0.00, -1.00, 3.9, 8.0)">3</text><text xml:space="preserve" font-family="HelveticaNeue-Medium" font-size="38.0" fill="#EAEAEA" transform="matrix(1.00, 0.00, -0.00, -1.00, 25.0, 8.0)">x</text><image xlink:href="../../6FF4693E-83A2-4E1B-81AF-92A43E949A0F/assets/96153EF9360E5FE03F7E46F1D5E90127.png" width="21.00" height="27.00" transform="matrix(1.00, 0.00, -0.00, -1.00, 42.0, 41.0)"></image><text xml:space="preserve" font-family="HelveticaNeue-Medium" font-size="25.3" fill="#EAEAEA" transform="matrix(1.00, 0.00, -0.00, -1.00, 45.4, 20.4)">2</text><image xlink:href="../../6FF4693E-83A2-4E1B-81AF-92A43E949A0F/assets/402FDC95E9B93C144B159642CE88AE45.png" width="114.00" height="36.00" transform="matrix(1.00, 0.00, -0.00, -1.00, 57.0, 37.0)"></image><text xml:space="preserve" font-family="HelveticaNeue-Medium" font-size="38.0" fill="#EAEAEA" transform="matrix(1.00, 0.00, -0.00, -1.00, 59.5, 8.0)">+</text><text xml:space="preserve" font-family="HelveticaNeue-Medium" font-size="38.0" fill="#EAEAEA" transform="matrix(1.00, 0.00, -0.00, -1.00, 82.3, 8.0)">5</text><text xml:space="preserve" font-family="HelveticaNeue-Medium" font-size="38.0" fill="#EAEAEA" transform="matrix(1.00, 0.00, -0.00, -1.00, 103.5, 8.0)">x</text><text xml:space="preserve" font-family="HelveticaNeue-Medium" font-size="38.0" fill="#EAEAEA" transform="matrix(1.00, 0.00, -0.00, -1.00, 123.9, 8.0)">+</text><text xml:space="preserve" font-family="HelveticaNeue-Medium" font-size="38.0" fill="#EAEAEA" transform="matrix(1.00, 0.00, -0.00, -1.00, 146.7, 8.0)">5</text></g></svg>