<?xml version="1.0" encoding="UTF-8" standalone="no"?><svg xmlns="http://www.w3.org/2000/svg" xmlns:xlink="http://www.w3.org/1999/xlink" clip-rule="evenodd" stroke-miterlimit="4.00" viewBox="0 0 155 49"><desc>SVG generated by Keynote</desc><defs></defs><g transform="matrix(1.00, 0.00, -0.00, -1.00, 0.0, 49.0)"><image xlink:href="../../6FF4693E-83A2-4E1B-81AF-92A43E949A0F/assets/D9EE99777D1BE2C30BE0C59B1F4BB6BB.png" width="152.00" height="46.00" transform="matrix(1.00, 0.00, -0.00, -1.00, 2.0, 48.0)"></image><text xml:space="preserve" font-family="HelveticaNeue-Medium" font-size="42.0" fill="#FEFFFE" transform="matrix(1.00, 0.00, -0.00, -1.00, 3.6, 15.0)">O</text><text xml:space="preserve" font-family="HelveticaNeue-Medium" font-size="42.0" fill="#FEFFFE" transform="matrix(1.00, 0.00, -0.00, -1.00, 35.5, 15.0)">r</text><text xml:space="preserve" font-family="HelveticaNeue-Medium" font-size="42.0" fill="#FEFFFE" transform="matrix(1.00, 0.00, -0.00, -1.00, 50.3, 15.0)">i</text><text xml:space="preserve" font-family="HelveticaNeue-Medium" font-size="42.0" fill="#FEFFFE" transform="matrix(1.00, 0.00, -0.00, -1.00, 60.4, 15.0)">g</text><text xml:space="preserve" font-family="HelveticaNeue-Medium" font-size="42.0" fill="#FEFFFE" transform="matrix(1.00, 0.00, -0.00, -1.00, 85.3, 15.0)">i</text><text xml:space="preserve" font-family="HelveticaNeue-Medium" font-size="42.0" fill="#FEFFFE" transform="matrix(1.00, 0.00, -0.00, -1.00, 95.4, 15.0)">n</text><text xml:space="preserve" font-family="HelveticaNeue-Medium" font-size="42.0" fill="#FEFFFE" transform="matrix(1.00, 0.00, -0.00, -1.00, 119.5, 15.0)">a</text><text xml:space="preserve" font-family="HelveticaNeue-Medium" font-size="42.0" fill="#FEFFFE" transform="matrix(1.00, 0.00, -0.00, -1.00, 142.9, 15.0)">l</text></g></svg>