<?xml version="1.0" encoding="UTF-8" standalone="no"?><svg xmlns="http://www.w3.org/2000/svg" xmlns:xlink="http://www.w3.org/1999/xlink" clip-rule="evenodd" stroke-miterlimit="4.00" viewBox="0 0 592 48"><desc>SVG generated by Keynote</desc><defs></defs><g transform="matrix(1.00, 0.00, -0.00, -1.00, 0.0, 48.0)"><image xlink:href="../../EBBA11E6-9256-40C4-BF6F-12F0827DB89A/assets/9BE79C0E419C93A9BC0CF83344253BF7.png" width="49.00" height="36.00" transform="matrix(1.00, 0.00, -0.00, -1.00, 1.0, 44.0)"></image><text xml:space="preserve" font-family="HelveticaNeue-Medium" font-size="38.0" fill="#EAEAEA" transform="matrix(1.00, 0.00, -0.00, -1.00, 4.0, 14.0)">2</text><text xml:space="preserve" font-family="HelveticaNeue-Medium" font-size="38.0" fill="#EAEAEA" transform="matrix(1.00, 0.00, -0.00, -1.00, 25.1, 14.0)">x</text><image xlink:href="../../E646DB3E-B125-4F95-8E10-A63AF002F536/assets/9803E1826B8F59C2CF410436331E3BC0.png" width="21.00" height="27.00" transform="matrix(1.00, 0.00, -0.00, -1.00, 42.0, 47.0)"></image><text xml:space="preserve" font-family="HelveticaNeue-Medium" font-size="25.3" fill="#EAEAEA" transform="matrix(1.00, 0.00, -0.00, -1.00, 45.5, 26.4)">2</text><image xlink:href="34E200F78B54E607025CD20D12260D49.png" width="454.00" height="44.00" transform="matrix(1.00, 0.00, -0.00, -1.00, 57.0, 44.0)"></image><text xml:space="preserve" font-family="HelveticaNeue-Medium" font-size="38.0" fill="#EAEAEA" transform="matrix(1.00, 0.00, -0.00, -1.00, 59.6, 14.0)">+</text><text xml:space="preserve" font-family="HelveticaNeue-Medium" font-size="38.0" fill="#EAEAEA" transform="matrix(1.00, 0.00, -0.00, -1.00, 82.4, 14.0)">8</text><text xml:space="preserve" font-family="HelveticaNeue-Medium" font-size="38.0" fill="#EAEAEA" transform="matrix(1.00, 0.00, -0.00, -1.00, 103.5, 14.0)">x</text><text xml:space="preserve" font-family="HelveticaNeue-Medium" font-size="38.0" fill="#EAEAEA" transform="matrix(1.00, 0.00, -0.00, -1.00, 124.0, 14.0)"> </text><text xml:space="preserve" font-family="HelveticaNeue-Medium" font-size="38.0" fill="#EAEAEA" transform="matrix(1.00, 0.00, -0.00, -1.00, 134.5, 14.0)">s</text><text xml:space="preserve" font-family="HelveticaNeue-Medium" font-size="38.0" fill="#EAEAEA" transform="matrix(1.00, 0.00, -0.00, -1.00, 154.2, 14.0)">h</text><text xml:space="preserve" font-family="HelveticaNeue-Medium" font-size="38.0" fill="#EAEAEA" transform="matrix(1.00, 0.00, -0.00, -1.00, 176.1, 14.0)">i</text><text xml:space="preserve" font-family="HelveticaNeue-Medium" font-size="38.0" fill="#EAEAEA" transform="matrix(1.00, 0.00, -0.00, -1.00, 185.2, 14.0)">f</text><text xml:space="preserve" font-family="HelveticaNeue-Medium" font-size="38.0" fill="#EAEAEA" transform="matrix(1.00, 0.00, -0.00, -1.00, 197.2, 14.0)">t</text><text xml:space="preserve" font-family="HelveticaNeue-Medium" font-size="38.0" fill="#EAEAEA" transform="matrix(1.00, 0.00, -0.00, -1.00, 209.8, 14.0)">e</text><text xml:space="preserve" font-family="HelveticaNeue-Medium" font-size="38.0" fill="#EAEAEA" transform="matrix(1.00, 0.00, -0.00, -1.00, 231.0, 14.0)">d</text><text xml:space="preserve" font-family="HelveticaNeue-Medium" font-size="38.0" fill="#EAEAEA" transform="matrix(1.00, 0.00, -0.00, -1.00, 254.2, 14.0)"> </text><text xml:space="preserve" font-family="HelveticaNeue-Medium" font-size="38.0" fill="#EAEAEA" transform="matrix(1.00, 0.00, -0.00, -1.00, 264.7, 14.0)">2</text><text xml:space="preserve" font-family="HelveticaNeue-Medium" font-size="38.0" fill="#EAEAEA" transform="matrix(1.00, 0.00, -0.00, -1.00, 285.9, 14.0)"> </text><text xml:space="preserve" font-family="HelveticaNeue-Medium" font-size="38.0" fill="#EAEAEA" transform="matrix(1.00, 0.00, -0.00, -1.00, 296.4, 14.0)">l</text><text xml:space="preserve" font-family="HelveticaNeue-Medium" font-size="38.0" fill="#EAEAEA" transform="matrix(1.00, 0.00, -0.00, -1.00, 305.6, 14.0)">e</text><text xml:space="preserve" font-family="HelveticaNeue-Medium" font-size="38.0" fill="#EAEAEA" transform="matrix(1.00, 0.00, -0.00, -1.00, 326.7, 14.0)">f</text><text xml:space="preserve" font-family="HelveticaNeue-Medium" font-size="38.0" fill="#EAEAEA" transform="matrix(1.00, 0.00, -0.00, -1.00, 338.7, 14.0)">t</text><text xml:space="preserve" font-family="HelveticaNeue-Medium" font-size="38.0" fill="#EAEAEA" transform="matrix(1.00, 0.00, -0.00, -1.00, 351.3, 14.0)"> </text><text xml:space="preserve" font-family="HelveticaNeue-Medium" font-size="38.0" fill="#EAEAEA" transform="matrix(1.00, 0.00, -0.00, -1.00, 361.9, 14.0)">i</text><text xml:space="preserve" font-family="HelveticaNeue-Medium" font-size="38.0" fill="#EAEAEA" transform="matrix(1.00, 0.00, -0.00, -1.00, 371.1, 14.0)">s</text><text xml:space="preserve" font-family="HelveticaNeue-Medium" font-size="38.0" fill="#EAEAEA" transform="matrix(1.00, 0.00, -0.00, -1.00, 390.8, 14.0)"> </text><text xml:space="preserve" font-family="HelveticaNeue-Medium" font-size="38.0" fill="#EAEAEA" transform="matrix(1.00, 0.00, -0.00, -1.00, 401.4, 14.0)">2</text><text xml:space="preserve" font-family="HelveticaNeue-Medium" font-size="38.0" fill="#EAEAEA" transform="matrix(1.00, 0.00, -0.00, -1.00, 422.5, 14.0)">(</text><text xml:space="preserve" font-family="HelveticaNeue-Medium" font-size="38.0" fill="#EAEAEA" transform="matrix(1.00, 0.00, -0.00, -1.00, 433.0, 14.0)">x</text><text xml:space="preserve" font-family="HelveticaNeue-Medium" font-size="38.0" fill="#EAEAEA" transform="matrix(1.00, 0.00, -0.00, -1.00, 453.5, 14.0)">+</text><text xml:space="preserve" font-family="HelveticaNeue-Medium" font-size="38.0" fill="#EAEAEA" transform="matrix(1.00, 0.00, -0.00, -1.00, 476.3, 14.0)">2</text><text xml:space="preserve" font-family="HelveticaNeue-Medium" font-size="38.0" fill="#EAEAEA" transform="matrix(1.00, 0.00, -0.00, -1.00, 497.4, 14.0)">)</text><image xlink:href="../../EBBA11E6-9256-40C4-BF6F-12F0827DB89A/assets/184C2D40C88BBF37B2F94AF9693F5784.png" width="22.00" height="27.00" transform="matrix(1.00, 0.00, -0.00, -1.00, 504.0, 47.0)"></image><text xml:space="preserve" font-family="HelveticaNeue-Medium" font-size="25.3" fill="#EAEAEA" transform="matrix(1.00, 0.00, -0.00, -1.00, 507.9, 26.4)">2</text><image xlink:href="../../EBBA11E6-9256-40C4-BF6F-12F0827DB89A/assets/BF23D064959916822DF197C91B5E87F0.png" width="72.00" height="37.00" transform="matrix(1.00, 0.00, -0.00, -1.00, 519.0, 44.0)"></image><text xml:space="preserve" font-family="HelveticaNeue-Medium" font-size="38.0" fill="#EAEAEA" transform="matrix(1.00, 0.00, -0.00, -1.00, 522.0, 14.0)">+</text><text xml:space="preserve" font-family="HelveticaNeue-Medium" font-size="38.0" fill="#EAEAEA" transform="matrix(1.00, 0.00, -0.00, -1.00, 544.8, 14.0)">8</text><text xml:space="preserve" font-family="HelveticaNeue-Medium" font-size="38.0" fill="#EAEAEA" transform="matrix(1.00, 0.00, -0.00, -1.00, 566.0, 14.0)">x</text></g></svg>