<?xml version="1.0" encoding="UTF-8" standalone="no"?><svg xmlns="http://www.w3.org/2000/svg" xmlns:xlink="http://www.w3.org/1999/xlink" clip-rule="evenodd" stroke-miterlimit="4.00" viewBox="0 0 688 48"><desc>SVG generated by Keynote</desc><defs></defs><g transform="matrix(1.00, 0.00, -0.00, -1.00, 0.0, 48.0)"><image xlink:href="../../F09E3870-9277-46EB-8534-5E533A8CB841/assets/9029C77D07A02DDBDFFAF7D4D9944997.png" width="19.00" height="19.00" transform="matrix(1.00, 0.00, -0.00, -1.00, 2.0, 35.0)"></image><text xml:space="preserve" font-family="HelveticaNeue-Medium" font-size="28.5" fill="#EAEAEA" transform="matrix(1.00, 0.00, -0.00, -1.00, 4.0, 17.6)">•</text><image xlink:href="D72C5D93F8E3C379B63596E9909333BD.png" width="651.00" height="44.00" transform="matrix(1.00, 0.00, -0.00, -1.00, 36.0, 44.0)"></image><text xml:space="preserve" font-family="HelveticaNeue-Medium" font-size="38.0" fill="#EAEAEA" transform="matrix(1.00, 0.00, -0.00, -1.00, 40.0, 14.0)">T</text><text xml:space="preserve" font-family="HelveticaNeue-Medium" font-size="38.0" fill="#EAEAEA" transform="matrix(1.00, 0.00, -0.00, -1.00, 58.3, 14.0)">o</text><text xml:space="preserve" font-family="HelveticaNeue-Medium" font-size="38.0" fill="#EAEAEA" transform="matrix(1.00, 0.00, -0.00, -1.00, 80.8, 14.0)"> </text><text xml:space="preserve" font-family="HelveticaNeue-Medium" font-size="38.0" fill="#EAEAEA" transform="matrix(1.00, 0.00, -0.00, -1.00, 91.4, 14.0)">s</text><text xml:space="preserve" font-family="HelveticaNeue-Medium" font-size="38.0" fill="#EAEAEA" transform="matrix(1.00, 0.00, -0.00, -1.00, 111.1, 14.0)">h</text><text xml:space="preserve" font-family="HelveticaNeue-Medium" font-size="38.0" fill="#EAEAEA" transform="matrix(1.00, 0.00, -0.00, -1.00, 132.9, 14.0)">i</text><text xml:space="preserve" font-family="HelveticaNeue-Medium" font-size="38.0" fill="#EAEAEA" transform="matrix(1.00, 0.00, -0.00, -1.00, 142.1, 14.0)">f</text><text xml:space="preserve" font-family="HelveticaNeue-Medium" font-size="38.0" fill="#EAEAEA" transform="matrix(1.00, 0.00, -0.00, -1.00, 154.1, 14.0)">t</text><text xml:space="preserve" font-family="HelveticaNeue-Medium" font-size="38.0" fill="#EAEAEA" transform="matrix(1.00, 0.00, -0.00, -1.00, 166.7, 14.0)"> </text><text xml:space="preserve" font-family="HelveticaNeue-Medium" font-size="38.0" fill="#EAEAEA" transform="matrix(1.00, 0.00, -0.00, -1.00, 177.3, 14.0)">u</text><text xml:space="preserve" font-family="HelveticaNeue-Medium" font-size="38.0" fill="#EAEAEA" transform="matrix(1.00, 0.00, -0.00, -1.00, 199.1, 14.0)">p</text><text xml:space="preserve" font-family="HelveticaNeue-Medium" font-size="38.0" fill="#EAEAEA" transform="matrix(1.00, 0.00, -0.00, -1.00, 222.3, 14.0)">,</text><text xml:space="preserve" font-family="HelveticaNeue-Medium" font-size="38.0" fill="#EAEAEA" transform="matrix(1.00, 0.00, -0.00, -1.00, 232.9, 14.0)"> </text><text xml:space="preserve" font-family="HelveticaNeue-Medium" font-size="38.0" fill="#EAEAEA" transform="matrix(1.00, 0.00, -0.00, -1.00, 243.5, 14.0)">a</text><text xml:space="preserve" font-family="HelveticaNeue-Medium" font-size="38.0" fill="#EAEAEA" transform="matrix(1.00, 0.00, -0.00, -1.00, 264.6, 14.0)"> </text><text xml:space="preserve" font-family="HelveticaNeue-Medium" font-size="38.0" fill="#EAEAEA" transform="matrix(1.00, 0.00, -0.00, -1.00, 275.1, 14.0)">n</text><text xml:space="preserve" font-family="HelveticaNeue-Medium" font-size="38.0" fill="#EAEAEA" transform="matrix(1.00, 0.00, -0.00, -1.00, 297.0, 14.0)">u</text><text xml:space="preserve" font-family="HelveticaNeue-Medium" font-size="38.0" fill="#EAEAEA" transform="matrix(1.00, 0.00, -0.00, -1.00, 318.8, 14.0)">m</text><text xml:space="preserve" font-family="HelveticaNeue-Medium" font-size="38.0" fill="#EAEAEA" transform="matrix(1.00, 0.00, -0.00, -1.00, 351.8, 14.0)">b</text><text xml:space="preserve" font-family="HelveticaNeue-Medium" font-size="38.0" fill="#EAEAEA" transform="matrix(1.00, 0.00, -0.00, -1.00, 375.0, 14.0)">e</text><text xml:space="preserve" font-family="HelveticaNeue-Medium" font-size="38.0" fill="#EAEAEA" transform="matrix(1.00, 0.00, -0.00, -1.00, 396.2, 14.0)">r</text><text xml:space="preserve" font-family="HelveticaNeue-Medium" font-size="38.0" fill="#EAEAEA" transform="matrix(1.00, 0.00, -0.00, -1.00, 409.5, 14.0)"> </text><text xml:space="preserve" font-family="HelveticaNeue-Medium" font-size="38.0" fill="#EAEAEA" transform="matrix(1.00, 0.00, -0.00, -1.00, 420.1, 14.0)">i</text><text xml:space="preserve" font-family="HelveticaNeue-Medium" font-size="38.0" fill="#EAEAEA" transform="matrix(1.00, 0.00, -0.00, -1.00, 429.3, 14.0)">s</text><text xml:space="preserve" font-family="HelveticaNeue-Medium" font-size="38.0" fill="#EAEAEA" transform="matrix(1.00, 0.00, -0.00, -1.00, 449.0, 14.0)"> </text><text xml:space="preserve" font-family="HelveticaNeue-Medium" font-size="38.0" fill="#EAEAEA" transform="matrix(1.00, 0.00, -0.00, -1.00, 459.6, 14.0)">a</text><text xml:space="preserve" font-family="HelveticaNeue-Medium" font-size="38.0" fill="#EAEAEA" transform="matrix(1.00, 0.00, -0.00, -1.00, 480.7, 14.0)">d</text><text xml:space="preserve" font-family="HelveticaNeue-Medium" font-size="38.0" fill="#EAEAEA" transform="matrix(1.00, 0.00, -0.00, -1.00, 503.9, 14.0)">d</text><text xml:space="preserve" font-family="HelveticaNeue-Medium" font-size="38.0" fill="#EAEAEA" transform="matrix(1.00, 0.00, -0.00, -1.00, 527.1, 14.0)">e</text><text xml:space="preserve" font-family="HelveticaNeue-Medium" font-size="38.0" fill="#EAEAEA" transform="matrix(1.00, 0.00, -0.00, -1.00, 548.2, 14.0)">d</text><text xml:space="preserve" font-family="HelveticaNeue-Medium" font-size="38.0" fill="#EAEAEA" transform="matrix(1.00, 0.00, -0.00, -1.00, 571.5, 14.0)"> </text><text xml:space="preserve" font-family="HelveticaNeue-Medium" font-size="38.0" fill="#EAEAEA" transform="matrix(1.00, 0.00, -0.00, -1.00, 582.0, 14.0)">t</text><text xml:space="preserve" font-family="HelveticaNeue-Medium" font-size="38.0" fill="#EAEAEA" transform="matrix(1.00, 0.00, -0.00, -1.00, 594.7, 14.0)">o</text><text xml:space="preserve" font-family="HelveticaNeue-Medium" font-size="38.0" fill="#EAEAEA" transform="matrix(1.00, 0.00, -0.00, -1.00, 617.2, 14.0)"> </text><text xml:space="preserve" font-family="HelveticaNeue-Medium" font-size="38.0" fill="#EAEAEA" transform="matrix(1.00, 0.00, -0.00, -1.00, 627.8, 14.0)">t</text><text xml:space="preserve" font-family="HelveticaNeue-Medium" font-size="38.0" fill="#EAEAEA" transform="matrix(1.00, 0.00, -0.00, -1.00, 640.4, 14.0)">h</text><text xml:space="preserve" font-family="HelveticaNeue-Medium" font-size="38.0" fill="#EAEAEA" transform="matrix(1.00, 0.00, -0.00, -1.00, 662.2, 14.0)">e</text></g></svg>