<?xml version="1.0" encoding="UTF-8" standalone="no"?><svg xmlns="http://www.w3.org/2000/svg" xmlns:xlink="http://www.w3.org/1999/xlink" clip-rule="evenodd" stroke-miterlimit="4.00" viewBox="0 0 523 77"><desc>SVG generated by Keynote</desc><defs></defs><g transform="matrix(1.00, 0.00, -0.00, -1.00, 0.0, 77.0)"><image xlink:href="../../F09E3870-9277-46EB-8534-5E533A8CB841/assets/66D1E5E86CFCC9FBB6A9AEB87C7B1BC3.png" width="521.00" height="75.00" transform="matrix(1.00, 0.00, -0.00, -1.00, 1.0, 76.0)"></image><text xml:space="preserve" font-family="HelveticaNeue-Bold" font-weight="bold" font-size="90.0" fill="#FEFFFE" transform="matrix(1.00, 0.00, -0.00, -1.00, -1.0, 9.0)">I</text><text xml:space="preserve" font-family="HelveticaNeue-Bold" font-weight="bold" font-size="90.0" fill="#FEFFFE" transform="matrix(1.00, 0.00, -0.00, -1.00, 25.6, 9.0)">n</text><text xml:space="preserve" font-family="HelveticaNeue-Bold" font-weight="bold" font-size="90.0" fill="#FEFFFE" transform="matrix(1.00, 0.00, -0.00, -1.00, 78.9, 9.0)">t</text><text xml:space="preserve" font-family="HelveticaNeue-Bold" font-weight="bold" font-size="90.0" fill="#FEFFFE" transform="matrix(1.00, 0.00, -0.00, -1.00, 110.6, 9.0)">r</text><text xml:space="preserve" font-family="HelveticaNeue-Bold" font-weight="bold" font-size="90.0" fill="#FEFFFE" transform="matrix(1.00, 0.00, -0.00, -1.00, 144.0, 9.0)">o</text><text xml:space="preserve" font-family="HelveticaNeue-Bold" font-weight="bold" font-size="90.0" fill="#FEFFFE" transform="matrix(1.00, 0.00, -0.00, -1.00, 199.0, 9.0)">d</text><text xml:space="preserve" font-family="HelveticaNeue-Bold" font-weight="bold" font-size="90.0" fill="#FEFFFE" transform="matrix(1.00, 0.00, -0.00, -1.00, 254.0, 9.0)">u</text><text xml:space="preserve" font-family="HelveticaNeue-Bold" font-weight="bold" font-size="90.0" fill="#FEFFFE" transform="matrix(1.00, 0.00, -0.00, -1.00, 307.3, 9.0)">c</text><text xml:space="preserve" font-family="HelveticaNeue-Bold" font-weight="bold" font-size="90.0" fill="#FEFFFE" transform="matrix(1.00, 0.00, -0.00, -1.00, 359.0, 9.0)">t</text><text xml:space="preserve" font-family="HelveticaNeue-Bold" font-weight="bold" font-size="90.0" fill="#FEFFFE" transform="matrix(1.00, 0.00, -0.00, -1.00, 390.7, 9.0)">i</text><text xml:space="preserve" font-family="HelveticaNeue-Bold" font-weight="bold" font-size="90.0" fill="#FEFFFE" transform="matrix(1.00, 0.00, -0.00, -1.00, 413.9, 9.0)">o</text><text xml:space="preserve" font-family="HelveticaNeue-Bold" font-weight="bold" font-size="90.0" fill="#FEFFFE" transform="matrix(1.00, 0.00, -0.00, -1.00, 468.9, 9.0)">n</text></g></svg>