<?xml version="1.0" encoding="UTF-8" standalone="no"?><svg xmlns="http://www.w3.org/2000/svg" xmlns:xlink="http://www.w3.org/1999/xlink" clip-rule="evenodd" stroke-miterlimit="4.00" viewBox="0 0 757 49"><desc>SVG generated by Keynote</desc><defs></defs><g transform="matrix(1.00, 0.00, -0.00, -1.00, 0.0, 49.0)"><image xlink:href="../../F09E3870-9277-46EB-8534-5E533A8CB841/assets/9029C77D07A02DDBDFFAF7D4D9944997.png" width="19.00" height="19.00" transform="matrix(1.00, 0.00, -0.00, -1.00, 2.0, 36.0)"></image><text xml:space="preserve" font-family="HelveticaNeue-Medium" font-size="28.5" fill="#EAEAEA" transform="matrix(1.00, 0.00, -0.00, -1.00, 4.0, 18.6)">•</text><image xlink:href="45A38920399A7E3AD2E6E1E945E14618.png" width="720.00" height="44.00" transform="matrix(1.00, 0.00, -0.00, -1.00, 36.0, 45.0)"></image><text xml:space="preserve" font-family="HelveticaNeue-Medium" font-size="38.0" fill="#EAEAEA" transform="matrix(1.00, 0.00, -0.00, -1.00, 40.0, 15.0)">T</text><text xml:space="preserve" font-family="HelveticaNeue-Medium" font-size="38.0" fill="#EAEAEA" transform="matrix(1.00, 0.00, -0.00, -1.00, 58.3, 15.0)">o</text><text xml:space="preserve" font-family="HelveticaNeue-Medium" font-size="38.0" fill="#EAEAEA" transform="matrix(1.00, 0.00, -0.00, -1.00, 80.8, 15.0)"> </text><text xml:space="preserve" font-family="HelveticaNeue-Medium" font-size="38.0" fill="#EAEAEA" transform="matrix(1.00, 0.00, -0.00, -1.00, 91.4, 15.0)">s</text><text xml:space="preserve" font-family="HelveticaNeue-Medium" font-size="38.0" fill="#EAEAEA" transform="matrix(1.00, 0.00, -0.00, -1.00, 111.1, 15.0)">h</text><text xml:space="preserve" font-family="HelveticaNeue-Medium" font-size="38.0" fill="#EAEAEA" transform="matrix(1.00, 0.00, -0.00, -1.00, 132.9, 15.0)">i</text><text xml:space="preserve" font-family="HelveticaNeue-Medium" font-size="38.0" fill="#EAEAEA" transform="matrix(1.00, 0.00, -0.00, -1.00, 142.1, 15.0)">f</text><text xml:space="preserve" font-family="HelveticaNeue-Medium" font-size="38.0" fill="#EAEAEA" transform="matrix(1.00, 0.00, -0.00, -1.00, 154.1, 15.0)">t</text><text xml:space="preserve" font-family="HelveticaNeue-Medium" font-size="38.0" fill="#EAEAEA" transform="matrix(1.00, 0.00, -0.00, -1.00, 166.7, 15.0)"> </text><text xml:space="preserve" font-family="HelveticaNeue-Medium" font-size="38.0" fill="#EAEAEA" transform="matrix(1.00, 0.00, -0.00, -1.00, 177.3, 15.0)">d</text><text xml:space="preserve" font-family="HelveticaNeue-Medium" font-size="38.0" fill="#EAEAEA" transform="matrix(1.00, 0.00, -0.00, -1.00, 200.5, 15.0)">i</text><text xml:space="preserve" font-family="HelveticaNeue-Medium" font-size="38.0" fill="#EAEAEA" transform="matrix(1.00, 0.00, -0.00, -1.00, 209.7, 15.0)">a</text><text xml:space="preserve" font-family="HelveticaNeue-Medium" font-size="38.0" fill="#EAEAEA" transform="matrix(1.00, 0.00, -0.00, -1.00, 230.8, 15.0)">g</text><text xml:space="preserve" font-family="HelveticaNeue-Medium" font-size="38.0" fill="#EAEAEA" transform="matrix(1.00, 0.00, -0.00, -1.00, 253.3, 15.0)">o</text><text xml:space="preserve" font-family="HelveticaNeue-Medium" font-size="38.0" fill="#EAEAEA" transform="matrix(1.00, 0.00, -0.00, -1.00, 275.9, 15.0)">n</text><text xml:space="preserve" font-family="HelveticaNeue-Medium" font-size="38.0" fill="#EAEAEA" transform="matrix(1.00, 0.00, -0.00, -1.00, 297.7, 15.0)">a</text><text xml:space="preserve" font-family="HelveticaNeue-Medium" font-size="38.0" fill="#EAEAEA" transform="matrix(1.00, 0.00, -0.00, -1.00, 318.8, 15.0)">l</text><text xml:space="preserve" font-family="HelveticaNeue-Medium" font-size="38.0" fill="#EAEAEA" transform="matrix(1.00, 0.00, -0.00, -1.00, 328.0, 15.0)">l</text><text xml:space="preserve" font-family="HelveticaNeue-Medium" font-size="38.0" fill="#EAEAEA" transform="matrix(1.00, 0.00, -0.00, -1.00, 337.1, 15.0)">y</text><text xml:space="preserve" font-family="HelveticaNeue-Medium" font-size="38.0" fill="#EAEAEA" transform="matrix(1.00, 0.00, -0.00, -1.00, 353.3, 15.0)">,</text><text xml:space="preserve" font-family="HelveticaNeue-Medium" font-size="38.0" fill="#EAEAEA" transform="matrix(1.00, 0.00, -0.00, -1.00, 363.9, 15.0)"> </text><text xml:space="preserve" font-family="HelveticaNeue-Medium" font-size="38.0" fill="#EAEAEA" transform="matrix(1.00, 0.00, -0.00, -1.00, 374.5, 15.0)">a</text><text xml:space="preserve" font-family="HelveticaNeue-Medium" font-size="38.0" fill="#EAEAEA" transform="matrix(1.00, 0.00, -0.00, -1.00, 395.6, 15.0)">n</text><text xml:space="preserve" font-family="HelveticaNeue-Medium" font-size="38.0" fill="#EAEAEA" transform="matrix(1.00, 0.00, -0.00, -1.00, 417.4, 15.0)"> </text><text xml:space="preserve" font-family="HelveticaNeue-Medium" font-size="38.0" fill="#EAEAEA" transform="matrix(1.00, 0.00, -0.00, -1.00, 428.0, 15.0)">u</text><text xml:space="preserve" font-family="HelveticaNeue-Medium" font-size="38.0" fill="#EAEAEA" transform="matrix(1.00, 0.00, -0.00, -1.00, 449.8, 15.0)">p</text><text xml:space="preserve" font-family="HelveticaNeue-Medium" font-size="38.0" fill="#EAEAEA" transform="matrix(1.00, 0.00, -0.00, -1.00, 473.0, 15.0)"> </text><text xml:space="preserve" font-family="HelveticaNeue-Medium" font-size="38.0" fill="#EAEAEA" transform="matrix(1.00, 0.00, -0.00, -1.00, 483.6, 15.0)">o</text><text xml:space="preserve" font-family="HelveticaNeue-Medium" font-size="38.0" fill="#EAEAEA" transform="matrix(1.00, 0.00, -0.00, -1.00, 506.1, 15.0)">r</text><text xml:space="preserve" font-family="HelveticaNeue-Medium" font-size="38.0" fill="#EAEAEA" transform="matrix(1.00, 0.00, -0.00, -1.00, 519.5, 15.0)"> </text><text xml:space="preserve" font-family="HelveticaNeue-Medium" font-size="38.0" fill="#EAEAEA" transform="matrix(1.00, 0.00, -0.00, -1.00, 530.0, 15.0)">d</text><text xml:space="preserve" font-family="HelveticaNeue-Medium" font-size="38.0" fill="#EAEAEA" transform="matrix(1.00, 0.00, -0.00, -1.00, 553.3, 15.0)">o</text><text xml:space="preserve" font-family="HelveticaNeue-Medium" font-size="38.0" fill="#EAEAEA" transform="matrix(1.00, 0.00, -0.00, -1.00, 575.8, 15.0)">w</text><text xml:space="preserve" font-family="HelveticaNeue-Medium" font-size="38.0" fill="#EAEAEA" transform="matrix(1.00, 0.00, -0.00, -1.00, 605.4, 15.0)">n</text><text xml:space="preserve" font-family="HelveticaNeue-Medium" font-size="38.0" fill="#EAEAEA" transform="matrix(1.00, 0.00, -0.00, -1.00, 627.2, 15.0)"> </text><text xml:space="preserve" font-family="HelveticaNeue-Medium" font-size="38.0" fill="#EAEAEA" transform="matrix(1.00, 0.00, -0.00, -1.00, 637.7, 15.0)">s</text><text xml:space="preserve" font-family="HelveticaNeue-Medium" font-size="38.0" fill="#EAEAEA" transform="matrix(1.00, 0.00, -0.00, -1.00, 657.5, 15.0)">h</text><text xml:space="preserve" font-family="HelveticaNeue-Medium" font-size="38.0" fill="#EAEAEA" transform="matrix(1.00, 0.00, -0.00, -1.00, 679.3, 15.0)">i</text><text xml:space="preserve" font-family="HelveticaNeue-Medium" font-size="38.0" fill="#EAEAEA" transform="matrix(1.00, 0.00, -0.00, -1.00, 688.4, 15.0)">f</text><text xml:space="preserve" font-family="HelveticaNeue-Medium" font-size="38.0" fill="#EAEAEA" transform="matrix(1.00, 0.00, -0.00, -1.00, 700.4, 15.0)">t</text><text xml:space="preserve" font-family="HelveticaNeue-Medium" font-size="38.0" fill="#EAEAEA" transform="matrix(1.00, 0.00, -0.00, -1.00, 713.1, 15.0)"> </text><text xml:space="preserve" font-family="HelveticaNeue-Medium" font-size="38.0" fill="#EAEAEA" transform="matrix(1.00, 0.00, -0.00, -1.00, 723.6, 15.0)">i</text><text xml:space="preserve" font-family="HelveticaNeue-Medium" font-size="38.0" fill="#EAEAEA" transform="matrix(1.00, 0.00, -0.00, -1.00, 732.8, 15.0)">s</text></g></svg>