<?xml version="1.0" encoding="UTF-8" standalone="no"?><svg xmlns="http://www.w3.org/2000/svg" xmlns:xlink="http://www.w3.org/1999/xlink" clip-rule="evenodd" stroke-miterlimit="4.00" viewBox="0 0 351 115"><desc>SVG generated by Keynote</desc><defs><pattern id="0DD65079-BE72-45C2-BCAB-527F4FB5F0C9" patternUnits="userSpaceOnUse" width="340" height="340" viewBox="0 0 340 340" patternTransform="matrix(0.752941, 0.000000, 0.000000, -0.752941, 5.416016, 107.026900)"><image xlink:href="../../6FF4693E-83A2-4E1B-81AF-92A43E949A0F/assets/A89C77B3D65E49F03AD039A48EF35BFB.jpeg" width="340.00" height="340.00"></image></pattern></defs><g transform="matrix(1.00, 0.00, -0.00, -1.00, 0.0, 115.0)"><image xlink:href="../../130AEDCE-4D9A-4582-B8CD-64378F1AF9E6/assets/105A327B51ADEBED941CC90038FBE5F7.png" width="347.00" height="108.00" transform="matrix(1.00, 0.00, -0.00, -1.00, 1.4, 109.0)" opacity="0.50"></image><g><clipPath id="clip-552"><path d="M 33.6 107.0 L 316.3 107.0 C 324.3 107.0 328.4 107.0 332.8 105.6 C 337.6 103.9 341.3 100.2 343.1 95.4 C 344.5 91.0 344.5 86.9 344.5 78.7 L 344.5 35.2 C 344.5 27.1 344.5 23.0 343.1 18.7 C 341.3 13.9 337.6 10.1 332.8 8.4 C 328.4 7.0 324.3 7.0 316.1 7.0 L 33.6 7.0 C 25.5 7.0 21.4 7.0 17.1 8.4 C 12.3 10.1 8.5 13.9 6.8 18.7 C 5.4 23.0 5.4 27.1 5.4 35.3 L 5.4 78.8 C 5.4 86.9 5.4 91.0 6.8 95.4 C 8.5 100.2 12.3 103.9 17.1 105.6 C 21.4 107.0 25.5 107.0 33.7 107.0 Z M 33.6 107.0 "></path></clipPath><g clip-path="url(#clip-552)"><path d="M 5.4 7.0 L 344.5 7.0 L 344.5 107.0 L 5.4 107.0 Z M 5.4 7.0 " fill="url(#0DD65079-BE72-45C2-BCAB-527F4FB5F0C9)"></path><path d="M 5.4 107.0 L 344.5 107.0 L 344.5 7.0 L 5.4 7.0 Z M 5.4 107.0 " fill="#14A3FF" fill-opacity="0.60"></path></g></g></g></svg>