<?xml version="1.0" encoding="UTF-8" standalone="no"?><svg xmlns="http://www.w3.org/2000/svg" xmlns:xlink="http://www.w3.org/1999/xlink" clip-rule="evenodd" stroke-miterlimit="4.00" viewBox="0 0 158 46"><desc>SVG generated by Keynote</desc><defs></defs><g transform="matrix(1.00, 0.00, -0.00, -1.00, 0.0, 46.0)"><image xlink:href="BD07B05D221947FA0120D6B283322F48.png" width="155.00" height="44.00" transform="matrix(1.00, 0.00, -0.00, -1.00, 1.0, 45.0)"></image><text xml:space="preserve" font-family="HelveticaNeue-Medium" font-size="38.0" fill="#EAEAEA" transform="matrix(1.00, 0.00, -0.00, -1.00, 3.8, 15.0)">d</text><text xml:space="preserve" font-family="HelveticaNeue-Medium" font-size="38.0" fill="#EAEAEA" transform="matrix(1.00, 0.00, -0.00, -1.00, 27.0, 15.0)">i</text><text xml:space="preserve" font-family="HelveticaNeue-Medium" font-size="38.0" fill="#EAEAEA" transform="matrix(1.00, 0.00, -0.00, -1.00, 36.1, 15.0)">a</text><text xml:space="preserve" font-family="HelveticaNeue-Medium" font-size="38.0" fill="#EAEAEA" transform="matrix(1.00, 0.00, -0.00, -1.00, 57.3, 15.0)">g</text><text xml:space="preserve" font-family="HelveticaNeue-Medium" font-size="38.0" fill="#EAEAEA" transform="matrix(1.00, 0.00, -0.00, -1.00, 79.8, 15.0)">o</text><text xml:space="preserve" font-family="HelveticaNeue-Medium" font-size="38.0" fill="#EAEAEA" transform="matrix(1.00, 0.00, -0.00, -1.00, 102.3, 15.0)">n</text><text xml:space="preserve" font-family="HelveticaNeue-Medium" font-size="38.0" fill="#EAEAEA" transform="matrix(1.00, 0.00, -0.00, -1.00, 124.2, 15.0)">a</text><text xml:space="preserve" font-family="HelveticaNeue-Medium" font-size="38.0" fill="#EAEAEA" transform="matrix(1.00, 0.00, -0.00, -1.00, 145.3, 15.0)">l</text></g></svg>